# xmcd
# 
# Track frame offsets:
#     150
#     20282
#     37495
#     44897
#     55980
#     79950
#     114620
#     145720
#     164734
#     177685
#     203612
#     223592
# 
# Disc length: 3113
# 
# Revision: 1
# Processed by: cddbd v1.5.2PL0 Copyright (c) Steve Scherf et al.
# Submitted via: BonkEnc v1.0.8
# 
DISCID=bd0c270c
DTITLE=jazzDuo Timm/Brockelt - inner circle
DYEAR=1998
DGENRE=Jazz
TTITLE0=Part I
TTITLE1=Part II A
TTITLE2=Part II B
TTITLE3=Part II C
TTITLE4=Part II D
TTITLE5=Part III
TTITLE6=Oart IV
TTITLE7=Part V A
TTITLE8=Part V B
TTITLE9=Part V C
TTITLE10=Part VI
TTITLE11=Part VII
EXTD=YEAR: 1998
EXTT0=
EXTT1=
EXTT2=
EXTT3=
EXTT4=
EXTT5=
EXTT6=
EXTT7=
EXTT8=
EXTT9=
EXTT10=
EXTT11=
PLAYORDER=
